<?xml version="1.0" encoding="UTF-8"?>
<svg width="16px" height="20px" viewBox="0 0 16 20" version="1.1" xmlns="http://www.w3.org/2000/svg" xmlns:xlink="http://www.w3.org/1999/xlink">
    <!-- Generator: Sketch 53 (72520) - https://sketchapp.com -->
    <title>bx-bookmark-star</title>
    <desc>Created with Sketch.</desc>
    <g id="Page-1" stroke="none" stroke-width="1" fill="none" fill-rule="evenodd">
        <g id="Landing-page-Copy" transform="translate(-1499.000000, -1565.000000)">
            <g id="bx-bookmark-star" transform="translate(1499.000000, 1565.000000)">
                <path d="M2,17.277 L7.504,14.132 C7.81114533,13.9556172 8.18885467,13.9556172 8.496,14.132 L14,17.277 L14,2 L2,2 L2,17.277 Z M6.667,6.667 L8,4 L9.333,6.667 L12,7 L9.777,8.889 L10.667,12 L8,10.222 L5.333,12 L6.223,8.889 L4,7 L6.667,6.667 L6.667,6.667 Z" id="Shape"></path>
                <polygon id="Path" fill="#000000" fill-rule="nonzero" points="5.333 12 8 10.222 10.667 12 9.777 8.889 12 7 9.333 6.667 8 4 6.667 6.667 4 7 6.223 8.889"></polygon>
                <path d="M15,20 C15.2653793,20.0005324 15.5200427,19.8953465 15.7076946,19.7076946 C15.8953465,19.5200427 16.0005324,19.2653793 16,19 L16,1 C16,0.44771525 15.5522847,0 15,0 L1,0 C0.44771525,0 0,0.44771525 0,1 L0,19 C0.000114930693,19.3563841 0.189888625,19.6857747 0.498143421,19.8646284 C0.806398217,20.0434821 1.18654362,20.0447666 1.496,19.868 L8,16.152 L14.504,19.868 C14.6549623,19.9545762 14.825974,20.0000874 15,20 Z M14,17.277 L8.496,14.132 C8.18885467,13.9556172 7.81114533,13.9556172 7.504,14.132 L2,17.277 L2,2 L14,2 L14,17.277 Z" id="Shape" fill="#000000" fill-rule="nonzero"></path>
            </g>
        </g>
    </g>
</svg>