<?xml version="1.0" encoding="UTF-8"?>
<svg width="49px" height="43px" viewBox="0 0 49 43" version="1.1" xmlns="http://www.w3.org/2000/svg" xmlns:xlink="http://www.w3.org/1999/xlink">
    <!-- Generator: Sketch 53.2 (72643) - https://sketchapp.com -->
    <title>Group 9</title>
    <desc>Created with Sketch.</desc>
    <defs>
        <polygon id="path-1" points="5.46466765e-06 0.00169037772 22.9909274 0.00169037772 22.9909274 20.65 5.46466765e-06 20.65"></polygon>
        <polygon id="path-3" points="0.0397998156 0.0208222814 23.9677279 0.0208222814 23.9677279 12.9471231 0.0397998156 12.9471231"></polygon>
    </defs>
    <g id="Page-1" stroke="none" stroke-width="1" fill="none" fill-rule="evenodd">
        <g id="iPhone-XS" transform="translate(-31.000000, -34.000000)">
            <g id="Group-9" transform="translate(31.000000, 34.000000)">
                <g id="Group-3" transform="translate(0.000000, 22.000000)">
                    <mask id="mask-2" fill="white">
                        <use xlink:href="#path-1"></use>
                    </mask>
                    <g id="Clip-2"></g>
                    <path d="M1.19337064,19.4871361 L1.36194582,19.4871361 C2.50552339,19.4871361 3.64915585,19.4871361 4.79273341,19.4870823 C4.97129905,19.4870286 4.9716284,19.4867597 4.9716284,19.3120951 L4.9716284,2.00992258 C4.9716284,1.55831138 5.20069523,1.33153781 5.66140883,1.33153781 C9.54961647,1.33116138 13.4378241,1.33460305 17.3259768,1.32696685 C17.7870198,1.32605266 18.02712,1.63978208 18.0265711,2.0186343 C18.0185568,7.77702661 18.021027,13.5354727 18.021027,19.2939188 L18.021027,19.4871361 L18.1924017,19.4871361 C19.3359792,19.4871361 20.4795568,19.4871361 21.6231344,19.4870823 C21.8010413,19.4870823 21.8013706,19.4867597 21.8013706,19.3114498 C21.8014255,13.0914439 21.8031821,6.87143807 21.7969243,0.65148599 C21.7965401,0.276935859 22.0794017,-0.012701901 22.42528,0.00649614583 C22.7345998,0.0236507031 22.9838671,0.271719583 22.9903444,0.576038203 C22.991552,0.634277656 22.9905091,0.692570885 22.9905091,0.750810339 L22.9905091,19.9889204 C22.9905091,20.4131596 22.7557334,20.6486448 22.323564,20.6489675 C20.7133993,20.6503119 19.1032346,20.6504195 17.4930699,20.6489137 C17.0619983,20.6485911 16.8302967,20.4128907 16.8302967,19.9853711 C16.8303516,14.2224616 16.8303516,8.45949836 16.8303516,2.69658885 C16.8303516,2.49326164 16.8302418,2.49320786 16.6247239,2.49320786 C13.2031582,2.49315409 9.78153771,2.49315409 6.35997208,2.49315409 L6.16340167,2.49315409 L6.16340167,2.68895266 L6.16340167,19.9776812 C6.16340167,20.4186985 5.9309315,20.6489675 5.47965943,20.6491826 C3.87866181,20.650043 2.2776642,20.6501506 0.676611695,20.6491826 C0.234836038,20.6489137 0.000883770883,20.4162248 0.000883770883,19.9833814 C0.000828878282,13.5347736 0.00104844869,7.08621958 5.48926014e-06,0.637665547 C-4.94033413e-05,0.392608125 0.0917859189,0.199713464 0.311630788,0.0794702344 C0.516764439,-0.0327065885 0.726673747,-0.0223815885 0.923079475,0.102916589 C1.09028234,0.209554479 1.17909857,0.367279609 1.19260215,0.562970625 C1.19660931,0.620941198 1.19337064,0.679449531 1.19337064,0.737688984 L1.19337064,19.2767105 L1.19337064,19.4871361 Z" id="Fill-1" fill="#000000" mask="url(#mask-2)"></path>
                </g>
                <path d="M18.024022,1.18214579 L18.024022,1.35756775 C18.024022,6.97504883 18.024022,12.5925844 18.0240769,18.21012 C18.0240769,18.6469583 17.7892015,18.8828706 17.3465727,18.8829796 C13.448508,18.883579 9.55044319,18.8835245 5.65237842,18.8830341 C5.20228285,18.8829251 4.97212908,18.6496286 4.97212908,18.1996568 L4.97212908,1.40160035 L4.97212908,1.19141007 L1.19314912,1.19141007 L1.19314912,1.37903909 C1.19314912,7.36894444 1.19320402,13.3588498 1.19314912,19.3487551 C1.19314912,19.7312066 0.939551727,20.0012333 0.586689542,19.9955112 C0.275224289,19.9904431 0.0201445144,19.7478823 0.00120294692,19.4379103 C-0.000993176839,19.401725 0.0004892067,19.3652674 0.0004892067,19.3289187 C0.000434303606,13.1119838 0.000434303606,6.89499451 0.0004892067,0.678059679 C0.0004892067,0.240948904 0.235748965,0.00487311879 0.677828678,0.00465513561 C2.27913232,0.00372870709 3.88043596,0.00378320288 5.4817396,0.00460063981 C5.93128613,0.004818623 6.16413016,0.239423022 6.16413016,0.686561023 L6.16413016,17.4982414 L6.16413016,17.6960066 L16.8331739,17.6960066 L16.8331739,17.5115929 C16.8331739,11.9031581 16.8331739,6.29472332 16.833119,0.686288544 C16.833119,0.236698232 17.0629434,0.0047641272 17.5145213,0.00454614402 C19.111268,0.00383769868 20.7080696,0.0110311437 22.3047064,2.29930048e-05 C22.7626532,-0.00313776313 23.0004934,0.320022303 22.9999992,0.69217409 C22.992203,6.91368657 22.9941246,13.135199 22.9957168,19.356657 C22.9957717,19.6064113 22.9021619,19.7998168 22.6833182,19.9215059 C22.4837454,20.0325139 22.2774745,20.0247755 22.0832823,19.9046667 C21.9186279,19.8027596 21.8245789,19.6509888 21.8076138,19.4572563 C21.8020686,19.3940956 21.8051981,19.3302266 21.8051981,19.26663 C21.8051432,13.3086047 21.8051432,7.35052486 21.8051432,1.39244506 C21.8051432,1.35157321 21.8163983,1.30579675 21.8015196,1.27124641 C21.7862016,1.23593314 21.748593,1.20601494 21.7138394,1.18476158 C21.6939095,1.17255453 21.6603088,1.18214579 21.6328573,1.18214579 C20.4844493,1.18214579 19.3360962,1.18214579 18.187743,1.18214579 L18.024022,1.18214579 Z" id="Fill-4" fill="#000000"></path>
                <g id="Group-8" transform="translate(25.000000, 0.000000)">
                    <mask id="mask-4" fill="white">
                        <use xlink:href="#path-3"></use>
                    </mask>
                    <g id="Clip-7"></g>
                    <path d="M2.07481905,1.23307241 C5.40042449,4.65879655 8.70393469,8.06165862 12.0081524,11.4653052 C15.3092136,8.06530086 18.6106014,4.66490431 21.9424653,1.23307241 L21.7507918,1.23307241 C18.9571592,1.23307241 16.163581,1.23234397 13.3699483,1.23430517 C13.1291864,1.23447328 12.9221116,1.1786069 12.7808327,0.958839655 C12.5451864,0.592486207 12.7529687,0.100783621 13.1749007,0.0337103448 C13.2372136,0.0237922414 13.3013769,0.0224474138 13.3647238,0.0224474138 C16.6707918,0.0219431034 19.9768599,0.021887069 23.2829279,0.0221672414 C23.6220844,0.0221672414 23.8463565,0.160460345 23.9319075,0.423822414 C24.000098,0.633671552 23.9724517,0.829512069 23.8359075,1.00372328 C23.7961796,1.05443448 23.7507374,1.1006069 23.7058939,1.14672328 C21.6083156,3.30690862 19.5105197,5.46692586 17.4126694,7.62683103 C15.7677714,9.32030517 14.122819,11.0137233 12.4778667,12.7071414 C12.1671728,13.0269862 11.8381388,13.0270983 11.5278803,12.7075897 C9.98224762,11.1160983 8.43666939,9.52449483 6.89098231,7.93305948 C4.68499592,5.66170172 2.47955374,3.38972759 0.271553741,1.12049914 C0.0779210884,0.921408621 -0.016555102,0.701809483 0.0750367347,0.426680172 C0.150682993,0.199292241 0.313404082,0.0692362069 0.543662585,0.0323655172 C0.601567347,0.0231198276 0.661159184,0.0223913793 0.719934694,0.0223913793 C4.04417959,0.0219431034 7.36842449,0.0225594828 10.6926694,0.0208224138 C10.9410503,0.0207103448 11.1470367,0.0917060345 11.2829279,0.320382759 C11.4940844,0.675809483 11.2867918,1.15081379 10.8867918,1.21889569 C10.8024925,1.23324052 10.7151456,1.23251207 10.6291592,1.23251207 C7.84461497,1.23318448 5.06007075,1.23307241 2.27552653,1.23307241 L2.07481905,1.23307241 Z" id="Fill-6" fill="#000000" mask="url(#mask-4)"></path>
                </g>
            </g>
        </g>
    </g>
</svg>
