<?xml version="1.0" encoding="UTF-8"?>
<svg width="141px" height="449px" viewBox="0 0 141 449" version="1.1" xmlns="http://www.w3.org/2000/svg" xmlns:xlink="http://www.w3.org/1999/xlink">
    <!-- Generator: Sketch 53.2 (72643) - https://sketchapp.com -->
    <title>Group 26</title>
    <desc>Created with Sketch.</desc>
    <defs>
        <polygon id="path-1" points="0 0.22890045 64.8215412 0.22890045 64.8215412 66.5922513 0 66.5922513"></polygon>
    </defs>
    <g id="Page-1" stroke="none" stroke-width="1" fill="none" fill-rule="evenodd">
        <g id="iPhone-XS" transform="translate(-117.000000, -200.000000)">
            <g id="Group-26" transform="translate(117.000000, 200.000000)">
                <path d="M50.1715186,64.896447 L20.8746425,64.896447 L20.8746425,66.4509079 C20.8746425,81.775005 20.8751436,97.0991021 20.8746425,112.423199 C20.8746425,114.534379 20.4312439,114.991718 18.3445147,114.995179 C14.3789778,115.001112 10.4129398,115.002101 6.4474028,114.994685 C4.47240005,114.991224 4.0024476,114.529929 4.00194658,112.597236 C3.99894049,95.2133789 3.99994252,77.8295222 4.00144557,60.44616 C4.00144557,60.1168753 3.98992221,59.7836353 4.0350136,59.4592948 C4.15926542,58.5589534 4.70386917,58.0086624 5.61671925,58.0160787 C6.519048,58.0234951 7.09271065,58.5485706 7.18740256,59.464239 C7.23850613,59.9542107 7.21996856,60.4515986 7.21996856,60.9455256 C7.22097059,77.2995025 7.22046957,93.6534793 7.22046957,110.007456 L7.22046957,111.732493 L17.6450972,111.732493 L17.6450972,110.083597 C17.6450972,94.7595 17.6445962,79.4354029 17.6455982,64.1113058 C17.6455982,62.0426467 18.0343862,61.653537 20.1156042,61.653537 C30.384416,61.6515593 40.6532279,61.6515593 50.9220397,61.653537 C52.9506511,61.6540314 53.3965548,62.1029661 53.3965548,64.1414655 C53.3985589,79.4245257 53.3975569,94.7075858 53.3980579,109.990646 L53.3980579,111.699861 L63.7695779,111.699861 L63.7695779,110.188909 L63.7695779,60.8797675 C63.7695779,60.5094459 63.7545474,60.137641 63.774588,59.7678138 C63.8342089,58.6790978 64.5281152,57.9117558 65.4459755,58.008168 C66.4670449,58.1159519 66.9961171,58.7290344 66.9976202,59.7579254 C66.9976202,60.0051361 66.9996242,60.2523468 66.9996242,60.499063 C67.0001253,77.8418827 67.0001253,95.1847024 66.9996242,112.527028 C66.9991232,114.541795 66.5507144,114.991718 64.5065716,114.995179 C60.5410346,115.001607 56.5759986,115.001607 52.6104617,114.995179 C50.6189254,114.991718 50.1730217,114.552178 50.1730217,112.610091 C50.1710176,97.2859934 50.1715186,81.9618963 50.1715186,66.6377992 L50.1715186,64.896447 Z" id="Fill-1" fill="#000000"></path>
                <path d="M20.8734396,48.6890543 C21.4365221,48.7160154 21.845308,48.7519634 22.2550958,48.7519634 C31.0625283,48.7554583 39.8704618,48.7309937 48.6773933,48.7819201 C49.8992423,48.7889099 50.1958125,48.4229391 50.1923057,47.2401494 C50.1537316,32.3881249 50.1672576,17.5361004 50.1677586,2.68457525 C50.1677586,0.388395447 50.5494924,0.00445061792 52.8444045,0.00295278374 C56.7263676,0.000456393436 60.6083308,-0.00303855299 64.490294,0.00494989598 C66.5342235,0.00894412047 66.9931057,0.472274161 66.9931057,2.49584814 C66.9941076,19.178226 66.9936066,35.8606038 66.9936066,52.5429817 C66.9936066,52.8755009 67.01615,53.2120143 66.9765739,53.5405393 C66.8648591,54.470195 66.2346475,55.0952911 65.3950333,54.9415135 C64.8028949,54.8326709 64.2443211,54.1726253 63.8290226,53.6368999 C63.6231268,53.3717833 63.7648994,52.8320637 63.7643984,52.4166643 C63.7628955,36.6080231 63.7633965,20.7993819 63.7633965,4.99074061 L63.7633965,3.30567716 L53.39346,3.30567716 L53.39346,4.93482147 C53.39346,19.7034665 53.39346,34.4721116 53.3929591,49.2407566 C53.3929591,51.58287 53.0322656,51.9593256 50.7408604,51.9603242 C40.5562803,51.9638191 30.3711992,51.9638191 20.1861182,51.9598249 C18.0054257,51.9588264 17.6447323,51.5888613 17.6447323,49.4160032 C17.6437304,34.6054188 17.6442313,19.7953337 17.6442313,4.98524855 L17.6442313,3.21580711 C16.0231147,3.21580711 14.5347533,3.21580711 13.04539,3.21630638 C11.4593408,3.21630638 9.87178865,3.25375224 8.28724232,3.20182732 C7.45764741,3.17386775 7.14103872,3.47892664 7.21618318,4.28276432 C7.2512506,4.65372792 7.22119282,5.03068286 7.22119282,5.4051414 C7.22069185,21.0475231 7.22119282,36.6894054 7.22069185,52.3312878 C7.22019089,54.2609975 6.74026823,55.0328814 5.57051936,54.9989305 C4.44485524,54.9664774 4.00050096,54.2270466 4.00050096,52.3677351 C4,35.810676 3.99949904,19.2526184 4.00100193,2.69506009 C4.00100193,0.403873067 4.39976856,0.00494989598 6.68967095,0.00295278374 C10.4884742,-4.28846251e-05 14.2867766,0.000456393436 18.0855798,0.00295278374 C20.4711662,0.00445061792 20.8734396,0.398880286 20.8734396,2.72951027 C20.8739405,17.4981553 20.8734396,32.2663011 20.8734396,47.0349461 L20.8734396,48.6890543 Z" id="Fill-3" fill="#000000"></path>
                <path d="M81.2332732,374.712049 L137.702332,374.712049 C137.727393,374.201692 137.766488,373.758185 137.76749,373.31418 C137.774006,370.944986 137.770998,368.575294 137.770497,366.205601 C137.769495,364.428581 137.768994,364.426586 136.038794,364.426586 C130.400609,364.425588 124.761924,364.426087 119.123739,364.426087 C110.854167,364.426087 102.584596,364.428082 94.3150245,364.425089 C91.978353,364.424091 91.6029419,364.052424 91.6024406,361.770534 C91.6019394,350.089197 91.6019394,338.40786 91.6029419,326.725525 C91.6034431,324.610762 92.0470197,324.167754 94.1666644,324.166756 C100.932586,324.164262 107.699009,324.165758 114.464931,324.165758 L116.112931,324.165758 C116.112931,323.566102 116.094386,323.082684 116.116941,322.600265 C116.162552,321.612477 116.725919,321.01731 117.685247,321.000348 C118.647082,320.983386 119.25606,321.587533 119.316206,322.547383 C119.38387,323.624471 119.37986,324.710538 119.319213,325.788125 C119.265583,326.753962 118.663121,327.29026 117.697277,327.361102 C117.115364,327.404006 116.52844,327.381057 115.944021,327.381057 C109.428708,327.382055 102.912893,327.381556 96.3975791,327.381556 L94.9049563,327.381556 C94.8773894,327.913365 94.8337836,328.352881 94.8337836,328.792396 C94.8297739,339.143712 94.8478176,349.495028 94.8057155,359.845845 C94.8007033,360.947877 95.1029369,361.246209 96.2046108,361.243714 C110.19607,361.208793 124.187529,361.219768 138.178989,361.221265 C140.74221,361.221764 140.997329,361.475196 140.99783,363.995052 C140.998833,367.9028 141.003344,371.810548 140.995324,375.717797 C140.992317,377.518763 140.513655,377.995695 138.680205,377.996194 C119.217466,378.001182 99.7547274,378.001182 80.2919885,377.996692 C78.4755798,377.996194 78.0039351,377.512277 78.0034339,375.69834 C78.001429,358.238445 78.0024314,340.778052 78.0029327,323.318157 C78.0029327,323.027308 77.9893998,322.734464 78.0204752,322.44611 C78.1132003,321.577555 78.6755652,320.932001 79.4694922,321.047742 C80.0779691,321.135545 80.7155165,321.715746 81.1210007,322.243065 C81.3706065,322.567837 81.2302659,323.20491 81.2302659,323.701299 C81.2342756,340.122021 81.2332732,356.542743 81.2332732,372.963465 L81.2332732,374.712049 Z" id="Fill-5" fill="#000000"></path>
                <path d="M4.23861676,293.444422 C4.54514375,298.540767 5.92727443,303.095771 8.44972564,307.276649 C17.9119278,322.959161 38.9474049,326.596713 53.238285,315.055881 C62.1672004,307.844288 65.8976991,295.735321 62.5013199,284.969038 C61.4733758,281.712062 59.6337122,278.92299 57.3711317,276.388463 C53.8533457,272.447243 49.6522705,269.308855 45.2269439,266.462722 C42.3914438,264.63824 39.4586177,262.960629 36.5609092,261.231414 C35.3152357,260.488621 34.9309482,259.65056 35.4732652,258.746506 C35.9909998,257.883635 36.8950287,257.757107 38.111103,258.427953 C45.3593876,262.429211 52.3086704,266.841313 58.2234874,272.687398 C64.4914877,278.88131 67.5642828,286.323631 66.9146061,295.091765 C65.8400058,309.593846 55.6368211,321.073151 41.1904199,324.231386 C22.9207092,328.226194 4.78996399,316.230358 1.5526176,297.968166 C1.22953515,296.144676 1.10762671,294.278514 1.00929727,292.425252 C0.920499759,290.747641 1.45629488,290.248476 3.1123433,290.245003 C7.66911027,290.235576 12.2258772,290.235079 16.7826442,290.245995 C18.3017338,290.249965 18.7391994,290.699015 18.8771617,292.232235 C19.4144618,298.223703 22.0462795,302.894815 27.6982157,305.537015 C35.2530273,309.068383 47.0385133,305.631787 48.8099483,295.642534 C49.6427385,290.944628 48.6052626,286.67642 44.9189118,283.437803 C42.3673631,281.196026 39.5148059,279.289673 36.7936891,277.23744 C36.495189,277.012667 36.1430091,276.851406 35.8705964,276.601823 C35.220418,276.006894 34.9540255,275.305781 35.5113929,274.509896 C36.0537099,273.736339 36.8147597,273.690193 37.628486,274.000311 C37.8968853,274.103022 38.1467223,274.27371 38.3790005,274.447376 C41.2425947,276.587434 44.2180637,278.599476 46.9391805,280.904764 C55.7542144,288.372887 53.920571,304.688037 40.4022793,309.052505 C35.3152357,310.694887 30.2658182,310.530649 25.4446654,308.008526 C19.892062,305.103843 16.9471955,300.385097 15.8359725,294.395118 C15.7717573,294.049275 15.3995102,293.488583 15.1627168,293.485109 C11.5792107,293.426559 7.99419945,293.444422 4.23861676,293.444422" id="Fill-7" fill="#000000"></path>
                <g id="Group-11" transform="translate(0.000000, 206.000000)">
                    <mask id="mask-2" fill="white">
                        <use xlink:href="#path-1"></use>
                    </mask>
                    <g id="Clip-10"></g>
                    <path d="M61.59735,30.8664037 C61.11935,24.7579889 59.19035,19.4530778 55.56785,14.7476926 C44.72985,0.666277778 24.71685,0.0836259259 13.07335,10.4527444 C4.49335,18.0932259 1.45385,27.6469296 4.50985,38.8433741 C5.54935,42.6524481 7.92035,45.7071519 10.64835,48.4983222 C14.12235,52.0537889 18.11435,54.9700259 22.28735,57.6396037 C25.40135,59.6322333 28.60685,61.4854037 31.77535,63.3931667 C32.96035,64.1063444 33.33585,64.9163 32.85685,65.7962333 C32.37885,66.6731889 31.39135,66.850863 30.24035,66.2027 C23.81935,62.5871815 17.56285,58.7230185 11.88585,54.0052259 C10.83335,53.1302556 9.82885,52.1937444 8.84085,51.2458185 C0.24835,43.0028333 -1.96315,33.0307519 1.69385,22.0189296 C5.81035,9.62293704 14.80435,2.33581852 27.80585,0.588359259 C41.21035,-1.21369259 51.88135,3.79393704 59.54885,14.8429815 C63.08685,19.9404407 64.71235,25.7188185 64.82035,31.907137 C64.84935,33.5672481 64.35485,34.0570926 62.67785,34.0605667 C58.26135,34.0704926 53.84485,34.0695 49.42835,34.061063 C47.75335,34.0580852 47.34685,33.6476481 47.23885,31.9329444 C46.80035,24.9406259 42.63935,19.6421667 36.20135,18.3135815 C30.42735,17.1219741 25.06035,18.1681667 21.00685,22.7053074 C16.06585,28.2360333 16.57535,36.0030704 22.20785,40.8722333 C25.08185,43.3566926 28.34985,45.3984556 31.48735,47.571737 C32.91135,48.5578778 33.39635,49.286937 32.87785,50.1931741 C32.32235,51.162937 31.24585,51.2885 29.83685,50.3142704 C26.59535,48.0715074 23.27485,45.9091444 20.23885,43.4122778 C15.31185,39.3600185 13.58885,34.0129222 14.91785,27.8255963 C16.27435,21.5062556 20.36735,17.5517667 26.45035,15.6043 C30.83085,14.2017667 35.26035,14.2801815 39.54585,15.9948852 C45.74135,18.4733889 49.05635,23.274063 50.17885,29.655937 C50.36085,30.6907148 50.72435,30.9011444 51.67735,30.8862556 C54.91585,30.8346407 58.15535,30.8664037 61.59735,30.8664037" id="Fill-9" fill="#000000" mask="url(#mask-2)"></path>
                </g>
                <path d="M94.8886919,279.66645 L94.8886919,311.264609 C95.4250198,311.290852 95.9102212,311.33492 96.3954226,311.33492 C103.076966,311.339376 109.759011,311.337396 116.441056,311.338386 C119.044502,311.338386 119.340235,311.62557 119.340235,314.146352 C119.340235,314.889069 119.372815,315.633767 119.3262,316.373513 C119.26154,317.394502 118.666567,318.008977 117.635514,317.971841 C116.667617,317.937181 116.134297,317.330133 116.112242,316.348261 C116.099711,315.817961 116.110237,315.28667 116.110237,314.610798 C115.547343,314.577623 115.067154,314.525633 114.587467,314.525138 C107.821714,314.519691 101.056463,314.523157 94.2912125,314.520186 C91.9920196,314.519196 91.6005503,314.128527 91.6000491,311.855812 C91.5995479,300.923511 91.5995479,289.991209 91.6005503,279.058907 C91.6005503,276.866901 91.9955283,276.479203 94.2260512,276.479203 C108.132985,276.478212 122.039919,276.478708 135.946352,276.478708 L137.660095,276.478708 L137.660095,266.299521 L81.2303735,266.299521 L81.2303735,267.885965 C81.2303735,283.727627 81.2308747,299.56929 81.2303735,315.410952 C81.2303735,317.18357 80.7331423,317.978773 79.6188834,317.999569 C78.4885847,318.02086 78.0003759,317.254871 78.0003759,315.454029 C77.9998747,298.828553 77.9998747,282.203076 78.0003759,265.5776 C78.0003759,263.334099 78.331195,263.002352 80.6198619,263.001857 C99.8720308,262.999381 119.124701,262.999381 138.37687,263.001857 C140.648996,263.002352 140.995855,263.351429 140.997358,265.587503 C140.999864,269.506574 141.002371,273.425645 140.995855,277.344716 C140.992847,279.202994 140.525189,279.663479 138.609446,279.663974 C124.618804,279.667935 110.628163,279.66645 96.6380233,279.66645 L94.8886919,279.66645 Z" id="Fill-12" fill="#000000"></path>
                <path d="M84.2322687,132.005006 C91.7715575,132.005006 99.3103491,131.990715 106.849141,132.010426 C111.651435,132.022746 116.368214,132.625424 120.784694,134.602976 C130.885968,139.125769 136.610041,147.067515 138.456083,157.719585 C140.017736,166.725749 138.259198,175.122829 132.628596,182.530394 C127.723882,188.983432 121.040246,192.430966 113.082826,193.545156 C110.714741,193.876801 108.295447,193.971909 105.89952,193.97733 C89.8688367,194.013303 73.8376557,193.996548 57.806972,193.993099 C57.3117774,193.992606 56.8071362,193.998027 56.3228796,193.912282 C55.4876115,193.763953 54.9829704,193.245049 55.0113099,192.379716 C55.0396493,191.475453 55.5487651,190.936345 56.4740234,190.854049 C56.9259631,190.814134 57.3843661,190.827932 57.8397861,190.827932 C74.0360319,190.826453 90.2332721,190.879674 106.429518,190.780624 C109.551332,190.761406 112.764131,190.512548 115.772588,189.74528 C126.819505,186.929006 133.205826,179.59733 135.261182,168.635297 C136.752235,160.683203 135.252233,153.184965 130.563296,146.461387 C125.912643,139.791523 119.333415,136.330192 111.307881,135.425929 C109.665685,135.240641 108.000617,135.192841 106.346488,135.191362 C90.1079819,135.174608 73.8699727,135.181507 57.6314663,135.181014 C55.7501244,135.181014 55.038655,134.769537 55.0013662,133.665696 C54.9620887,132.515532 55.768023,132.005498 57.6384268,132.005006 C66.5032065,132.004513 75.3679862,132.005006 84.2322687,132.005006" id="Fill-14" fill="#000000"></path>
                <path d="M136.783912,390.216411 L126.466046,390.216411 L126.466046,391.690824 C126.466046,397.722023 126.466046,403.752733 126.465547,409.783932 C126.465547,412.191226 126.113008,412.542463 123.661692,412.542463 C92.1336604,412.543441 60.6061272,412.542952 29.0785939,412.543441 L27.2002158,412.543441 C27.2002158,413.293367 27.2495811,413.896046 27.1892457,414.487964 C27.0935067,415.423291 26.5375227,416.018633 25.5606863,415.999555 C24.5908308,415.980476 24.0358441,415.407637 24.0173944,414.434153 C23.9954542,413.293367 23.9924624,412.151602 24.0188903,411.011304 C24.0403319,410.050539 24.5678934,409.501181 25.552708,409.426825 C26.0483565,409.389157 26.5484928,409.398941 27.0466345,409.398941 C58.4908948,409.397962 89.9356538,409.398941 121.379914,409.396495 C123.539525,409.396006 123.245826,409.532978 123.248818,407.565464 C123.259788,401.534265 123.25181,395.503066 123.253805,389.472356 C123.254303,387.448585 123.68812,387.006849 125.700134,387.004403 C129.646374,386.998532 133.592613,386.998532 137.538853,387.004403 C139.511973,387.006849 139.994657,387.470599 139.995156,389.348592 C139.997649,397.498953 139.996651,405.648825 139.995654,413.799187 C139.995654,414.083894 140.015101,414.373983 139.971719,414.653309 C139.839081,415.496669 139.253677,416.103752 138.466324,415.956506 C137.863967,415.843993 137.291029,415.242292 136.860702,414.732069 C136.651273,414.483561 136.785906,413.946433 136.785906,413.539917 C136.783413,406.286237 136.783912,399.032068 136.783912,391.778389 L136.783912,390.216411 Z" id="Fill-16" fill="#000000"></path>
                <path d="M27.1986946,423.325974 L29.0719136,423.325974 L123.027452,423.325974 C123.44267,423.325974 123.858387,423.315651 124.273606,423.329907 C125.885631,423.383984 126.425963,423.916883 126.427957,425.520987 C126.436431,431.747645 126.431446,437.974303 126.431945,444.20096 L126.431945,445.743123 L136.746114,445.743123 L136.746114,444.278634 C136.746114,436.98667 136.744618,429.695197 136.7506,422.403233 C136.751098,421.956365 136.646421,421.368407 136.884686,421.094583 C137.292428,420.62461 137.954385,420.045008 138.469794,420.080896 C138.982711,420.117274 139.514071,420.800604 139.901376,421.303023 C140.084312,421.540468 139.956705,422.017324 139.956705,422.385536 C139.958201,430.455709 139.959198,438.525882 139.957204,446.596056 C139.956705,448.528552 139.500114,448.99066 137.551129,448.994101 C133.563436,449.001966 129.576241,449.001966 125.588548,448.994101 C123.681932,448.990168 123.222849,448.537401 123.221852,446.689952 C123.218363,440.463294 123.179483,434.236145 123.253753,428.009979 C123.269206,426.719518 122.864455,426.464867 121.64123,426.466342 C90.1150248,426.497804 58.5888197,426.490922 27.0626146,426.49043 C26.5641529,426.49043 26.0641959,426.501737 25.567728,426.470274 C24.579777,426.407349 24.0459246,425.86216 24.0210015,424.894192 C23.9920907,423.788574 23.9940846,422.681481 24.020503,421.576355 C24.0439307,420.61232 24.5533585,420.026819 25.5537711,420.000764 C26.5586698,419.975692 27.0810577,420.56955 27.18723,421.501631 C27.2500362,422.056161 27.1986946,422.623472 27.1986946,423.325974" id="Fill-18" fill="#000000"></path>
                <path d="M26.3437902,135.174348 C26.2869924,135.568489 26.2132549,135.841168 26.2127566,136.114335 C26.2037886,138.837222 26.2306928,141.560597 26.1913329,144.282997 C26.1798737,145.087375 26.4678487,145.401029 27.2724847,145.323469 C27.6421688,145.28786 28.0188282,145.318591 28.3924981,145.318591 C54.5035592,145.318591 80.6136238,145.328835 106.724187,145.307372 C110.47683,145.304445 114.088474,145.806389 117.421611,147.590754 C122.039175,150.062425 124.789386,153.903833 125.9373,158.883761 C126.184421,159.954965 125.683703,160.749099 124.741058,160.958852 C123.836278,161.160313 123.087942,160.612028 122.794985,159.533019 C120.927133,152.646778 116.204941,148.887808 108.957737,148.530252 C107.963775,148.480985 106.966823,148.456107 105.971366,148.455619 C79.363075,148.451717 52.7542855,148.452692 26.1454961,148.451229 C25.6477677,148.451229 25.1485446,148.455131 24.6518126,148.4244 C23.6140066,148.360499 23.0231098,147.792214 23.0176293,146.787838 C22.9947109,142.439609 22.9937144,138.090891 23.0171311,133.741686 C23.0231098,132.680238 23.6598434,132.090978 24.7409952,132.045125 C25.6936045,132.005126 26.6497014,132.029516 27.6043036,132.029516 C34.7443894,132.029028 41.8844752,132.028053 49.0240628,132.032443 C49.4794419,132.032443 50.0613706,131.911957 50.3603066,132.135368 C50.8934091,132.533411 51.6103572,133.165109 51.5904281,133.673882 C51.5700008,134.182168 50.7967531,134.737282 50.2432233,135.118252 C49.9607288,135.31142 49.4365944,135.173373 49.0220699,135.173373 C41.9651879,135.174836 34.9078077,135.174348 27.8509258,135.174348 L26.3437902,135.174348 Z" id="Fill-20" fill="#000000"></path>
                <path d="M67.2400292,177.534903 C80.4811428,177.534903 93.7232529,177.579346 106.964865,177.492413 C109.255341,177.477761 111.64198,177.211589 113.810882,176.530288 C118.507429,175.054866 121.349472,171.688405 122.64892,167.052622 C122.703728,166.856778 122.74608,166.657516 122.799891,166.461184 C123.097847,165.365728 123.820316,164.840711 124.748066,165.042415 C125.673325,165.243143 126.180548,166.062659 125.940888,167.124415 C124.89555,171.751895 122.407765,175.439228 118.27873,177.94173 C115.441669,179.660857 112.299177,180.53898 108.950409,180.639588 C107.99675,180.668403 107.041596,180.678659 106.08694,180.678659 C80.0187626,180.680612 53.950585,180.680124 27.8824074,180.680124 C26.2062792,180.680124 26.2052827,180.681589 26.2042862,182.339668 C26.2032897,184.618488 26.2032897,186.89682 26.2042862,189.175152 C26.2047845,190.856673 26.2062792,190.857162 27.9810618,190.857162 C34.9132768,190.85765 41.8454917,190.857162 48.7772084,190.85765 C49.1508993,190.85765 49.5245902,190.864488 49.8982811,190.863022 C50.9311627,190.859115 51.6112801,191.356295 51.6650916,192.356026 C51.7213943,193.388967 51.0078939,193.872472 50.0188587,193.976499 C49.6895125,194.010686 49.3546854,193.997499 49.0228479,193.997499 C41.2191858,193.998476 33.4155237,193.999941 25.6113634,193.997499 C23.4080819,193.996522 23.0034993,193.594579 23.0025027,191.431018 C23.0000115,187.606448 22.9980185,183.78139 23.0034993,179.956821 C23.0059905,177.98422 23.4673742,177.537344 25.5221758,177.536856 C39.4284591,177.533437 53.3342442,177.534903 67.2400292,177.534903" id="Fill-22" fill="#000000"></path>
                <path d="M106.184205,30.6392447 C114.951362,22.0269663 123.981569,13.1569527 133.146801,4.15340788 L131.708529,4.15340788 C124.751714,4.15340788 117.7949,4.1538988 110.838085,4.15340788 C110.463014,4.15340788 110.087943,4.15488065 109.713372,4.14555309 C108.712683,4.12051597 108.013051,3.71550373 107.929535,2.65756267 C107.857021,1.72529813 108.53765,1.11066137 109.69887,1.01934952 C110.07144,0.989403158 110.448011,1.00314903 110.823082,1.00314903 C119.238673,1.0026581 127.653263,1.00167626 136.068353,1.00511272 C136.566947,1.00560365 137.074043,0.992839626 137.563136,1.07040561 C138.931394,1.28788491 139.428488,2.54612294 138.588329,3.6369559 C138.388792,3.89567281 138.135744,4.11560673 137.900199,4.34683191 C127.885807,14.1795473 117.870914,24.0117717 107.855021,33.8425234 C106.280724,35.3869701 105.727119,35.3859882 104.150821,33.838596 C94.1639336,24.0363179 84.1780463,14.2335489 74.1946595,4.42832528 C73.8725986,4.11118842 73.5240328,3.79945172 73.2824871,3.42585862 C72.6403658,2.43370136 73.1384599,1.31832219 74.3161825,1.09298811 C74.7612666,1.00805827 75.2273547,1.0065855 75.683941,1.00609457 C84.3070707,1.00167626 92.9302004,1.00118533 101.55333,1.00413088 C103.45669,1.0046218 104.245339,1.50389144 104.201831,2.65658082 C104.160823,3.73661346 103.428685,4.15242603 101.542828,4.15291695 C94.4609897,4.15438973 87.3786512,4.15340788 80.2968128,4.15340788 L79.208107,4.15340788 C88.1703008,12.9527284 97.2060085,21.8242147 106.184205,30.6392447" id="Fill-24" fill="#000000"></path>
            </g>
        </g>
    </g>
</svg>
