<?xml version="1.0" encoding="utf-8"?>
<!-- Generator: Adobe Illustrator 23.0.3, SVG Export Plug-In . SVG Version: 6.00 Build 0)  -->
<svg version="1.1" id="Layer_1" xmlns="http://www.w3.org/2000/svg" xmlns:xlink="http://www.w3.org/1999/xlink" x="0px" y="0px"
	 viewBox="0 0 141 449" style="enable-background:new 0 0 141 449;" xml:space="preserve">
<style type="text/css">
	.st0{fill-rule:evenodd;clip-rule:evenodd;fill:#D2A8AA;}
	.st1{filter:url(#Adobe_OpacityMaskFilter);}
	.st2{fill-rule:evenodd;clip-rule:evenodd;fill:#FFFFFF;}
	.st3{mask:url(#mask-2_1_);fill-rule:evenodd;clip-rule:evenodd;fill:#D2A8AA;}
</style>
<title>Group 26</title>
<desc>Created with Sketch.</desc>
<g id="Page-1">
	<g id="iPhone-XS" transform="translate(-117.000000, -200.000000)">
		<g id="Group-26" transform="translate(117.000000, 200.000000)">
			<path id="Fill-1" class="st0" d="M50.2,64.9H20.9v1.6c0,15.3,0,30.6,0,46c0,2.1-0.4,2.6-2.5,2.6c-4,0-7.9,0-11.9,0
				c-2,0-2.4-0.5-2.4-2.4c0-17.4,0-34.8,0-52.2c0-0.3,0-0.7,0-1C4.2,58.6,4.7,58,5.6,58c0.9,0,1.5,0.5,1.6,1.4c0.1,0.5,0,1,0,1.5
				c0,16.4,0,32.7,0,49.1v1.7h10.4v-1.6c0-15.3,0-30.6,0-46c0-2.1,0.4-2.5,2.5-2.5c10.3,0,20.5,0,30.8,0c2,0,2.5,0.4,2.5,2.5
				c0,15.3,0,30.6,0,45.8v1.7h10.4v-1.5V60.9c0-0.4,0-0.7,0-1.1c0.1-1.1,0.8-1.9,1.7-1.8c1,0.1,1.6,0.7,1.6,1.7c0,0.2,0,0.5,0,0.7
				c0,17.3,0,34.7,0,52c0,2-0.4,2.5-2.5,2.5c-4,0-7.9,0-11.9,0c-2,0-2.4-0.4-2.4-2.4c0-15.3,0-30.6,0-46V64.9z"/>
			<path id="Fill-3" class="st0" d="M20.9,48.7c0.6,0,1,0.1,1.4,0.1c8.8,0,17.6,0,26.4,0c1.2,0,1.5-0.4,1.5-1.5
				c0-14.9,0-29.7,0-44.6c0-2.3,0.4-2.7,2.7-2.7c3.9,0,7.8,0,11.6,0c2,0,2.5,0.5,2.5,2.5c0,16.7,0,33.4,0,50c0,0.3,0,0.7,0,1
				c-0.1,0.9-0.7,1.6-1.6,1.4c-0.6-0.1-1.2-0.8-1.6-1.3c-0.2-0.3-0.1-0.8-0.1-1.2c0-15.8,0-31.6,0-47.4V3.3H53.4v1.6
				c0,14.8,0,29.5,0,44.3c0,2.3-0.4,2.7-2.7,2.7c-10.2,0-20.4,0-30.6,0c-2.2,0-2.5-0.4-2.5-2.5c0-14.8,0-29.6,0-44.4V3.2
				c-1.6,0-3.1,0-4.6,0c-1.6,0-3.2,0-4.8,0c-0.8,0-1.1,0.3-1.1,1.1c0,0.4,0,0.7,0,1.1c0,15.6,0,31.3,0,46.9c0,1.9-0.5,2.7-1.7,2.7
				C4.4,55,4,54.2,4,52.4C4,35.8,4,19.3,4,2.7C4,0.4,4.4,0,6.7,0c3.8,0,7.6,0,11.4,0c2.4,0,2.8,0.4,2.8,2.7c0,14.8,0,29.5,0,44.3
				V48.7z"/>
			<path id="Fill-5" class="st0" d="M81.2,374.7h56.5c0-0.5,0.1-1,0.1-1.4c0-2.4,0-4.7,0-7.1c0-1.8,0-1.8-1.7-1.8
				c-5.6,0-11.3,0-16.9,0c-8.3,0-16.5,0-24.8,0c-2.3,0-2.7-0.4-2.7-2.7c0-11.7,0-23.4,0-35c0-2.1,0.4-2.6,2.6-2.6
				c6.8,0,13.5,0,20.3,0h1.6c0-0.6,0-1.1,0-1.6c0-1,0.6-1.6,1.6-1.6c1,0,1.6,0.6,1.6,1.5c0.1,1.1,0.1,2.2,0,3.2
				c-0.1,1-0.7,1.5-1.6,1.6c-0.6,0-1.2,0-1.8,0c-6.5,0-13,0-19.5,0h-1.5c0,0.5-0.1,1-0.1,1.4c0,10.4,0,20.7,0,31.1
				c0,1.1,0.3,1.4,1.4,1.4c14,0,28,0,42,0c2.6,0,2.8,0.3,2.8,2.8c0,3.9,0,7.8,0,11.7c0,1.8-0.5,2.3-2.3,2.3c-19.5,0-38.9,0-58.4,0
				c-1.8,0-2.3-0.5-2.3-2.3c0-17.5,0-34.9,0-52.4c0-0.3,0-0.6,0-0.9c0.1-0.9,0.7-1.5,1.4-1.4c0.6,0.1,1.2,0.7,1.7,1.2
				c0.2,0.3,0.1,1,0.1,1.5c0,16.4,0,32.8,0,49.3V374.7z"/>
			<path id="Fill-7" class="st0" d="M4.2,293.4c0.3,5.1,1.7,9.7,4.2,13.8c9.5,15.7,30.5,19.3,44.8,7.8c8.9-7.2,12.7-19.3,9.3-30.1
				c-1-3.3-2.9-6-5.1-8.6c-3.5-3.9-7.7-7.1-12.1-9.9c-2.8-1.8-5.8-3.5-8.7-5.2c-1.2-0.7-1.6-1.6-1.1-2.5c0.5-0.9,1.4-1,2.6-0.3
				c7.2,4,14.2,8.4,20.1,14.3c6.3,6.2,9.3,13.6,8.7,22.4c-1.1,14.5-11.3,26-25.7,29.1c-18.3,4-36.4-8-39.6-26.3
				c-0.3-1.8-0.4-3.7-0.5-5.5c-0.1-1.7,0.4-2.2,2.1-2.2c4.6,0,9.1,0,13.7,0c1.5,0,2,0.5,2.1,2c0.5,6,3.2,10.7,8.8,13.3
				c7.6,3.5,19.3,0.1,21.1-9.9c0.8-4.7-0.2-9-3.9-12.2c-2.6-2.2-5.4-4.1-8.1-6.2c-0.3-0.2-0.7-0.4-0.9-0.6c-0.7-0.6-0.9-1.3-0.4-2.1
				c0.5-0.8,1.3-0.8,2.1-0.5c0.3,0.1,0.5,0.3,0.8,0.4c2.9,2.1,5.8,4.2,8.6,6.5c8.8,7.5,7,23.8-6.5,28.1c-5.1,1.6-10.1,1.5-15-1
				c-5.6-2.9-8.5-7.6-9.6-13.6c-0.1-0.3-0.4-0.9-0.7-0.9C11.6,293.4,8,293.4,4.2,293.4"/>
			<g id="Group-11" transform="translate(0.000000, 206.000000)">
				<g id="Clip-10">
				</g>
				<defs>
					<filter id="Adobe_OpacityMaskFilter" filterUnits="userSpaceOnUse" x="0" y="0.2" width="64.8" height="66.4">
						<feColorMatrix  type="matrix" values="1 0 0 0 0  0 1 0 0 0  0 0 1 0 0  0 0 0 1 0"/>
					</filter>
				</defs>
				<mask maskUnits="userSpaceOnUse" x="0" y="0.2" width="64.8" height="66.4" id="mask-2_1_">
					<g class="st1">
						<polygon id="path-1_1_" class="st2" points="0,0.2 64.8,0.2 64.8,66.6 0,66.6 						"/>
					</g>
				</mask>
				<path id="Fill-9" class="st3" d="M61.6,30.9c-0.5-6.1-2.4-11.4-6-16.1C44.7,0.7,24.7,0.1,13.1,10.5C4.5,18.1,1.5,27.6,4.5,38.8
					c1,3.8,3.4,6.9,6.1,9.7c3.5,3.6,7.5,6.5,11.6,9.1c3.1,2,6.3,3.8,9.5,5.8c1.2,0.7,1.6,1.5,1.1,2.4c-0.5,0.9-1.5,1.1-2.6,0.4
					c-6.4-3.6-12.7-7.5-18.4-12.2c-1.1-0.9-2.1-1.8-3-2.8C0.2,43-2,33,1.7,22C5.8,9.6,14.8,2.3,27.8,0.6
					c13.4-1.8,24.1,3.2,31.7,14.3c3.5,5.1,5.2,10.9,5.3,17.1c0,1.7-0.5,2.1-2.1,2.2c-4.4,0-8.8,0-13.2,0c-1.7,0-2.1-0.4-2.2-2.1
					c-0.4-7-4.6-12.3-11-13.6c-5.8-1.2-11.1-0.1-15.2,4.4c-4.9,5.5-4.4,13.3,1.2,18.2c2.9,2.5,6.1,4.5,9.3,6.7
					c1.4,1,1.9,1.7,1.4,2.6c-0.6,1-1.6,1.1-3,0.1c-3.2-2.2-6.6-4.4-9.6-6.9c-4.9-4.1-6.6-9.4-5.3-15.6c1.4-6.3,5.4-10.3,11.5-12.2
					c4.4-1.4,8.8-1.3,13.1,0.4c6.2,2.5,9.5,7.3,10.6,13.7c0.2,1,0.5,1.2,1.5,1.2C54.9,30.8,58.2,30.9,61.6,30.9"/>
			</g>
			<path id="Fill-12" class="st0" d="M94.9,279.7v31.6c0.5,0,1,0.1,1.5,0.1c6.7,0,13.4,0,20,0c2.6,0,2.9,0.3,2.9,2.8
				c0,0.7,0,1.5,0,2.2c-0.1,1-0.7,1.6-1.7,1.6c-1,0-1.5-0.6-1.5-1.6c0-0.5,0-1.1,0-1.7c-0.6,0-1-0.1-1.5-0.1c-6.8,0-13.5,0-20.3,0
				c-2.3,0-2.7-0.4-2.7-2.7c0-10.9,0-21.9,0-32.8c0-2.2,0.4-2.6,2.6-2.6c13.9,0,27.8,0,41.7,0h1.7v-10.2H81.2v1.6
				c0,15.8,0,31.7,0,47.5c0,1.8-0.5,2.6-1.6,2.6c-1.1,0-1.6-0.7-1.6-2.5c0-16.6,0-33.3,0-49.9c0-2.2,0.3-2.6,2.6-2.6
				c19.3,0,38.5,0,57.8,0c2.3,0,2.6,0.3,2.6,2.6c0,3.9,0,7.8,0,11.8c0,1.9-0.5,2.3-2.4,2.3c-14,0-28,0-42,0H94.9z"/>
			<path id="Fill-14" class="st0" d="M84.2,132c7.5,0,15.1,0,22.6,0c4.8,0,9.5,0.6,13.9,2.6c10.1,4.5,15.8,12.5,17.7,23.1
				c1.6,9-0.2,17.4-5.8,24.8c-4.9,6.5-11.6,9.9-19.5,11c-2.4,0.3-4.8,0.4-7.2,0.4c-16,0-32.1,0-48.1,0c-0.5,0-1,0-1.5-0.1
				c-0.8-0.1-1.3-0.7-1.3-1.5c0-0.9,0.5-1.4,1.5-1.5c0.5,0,0.9,0,1.4,0c16.2,0,32.4,0.1,48.6,0c3.1,0,6.3-0.3,9.3-1
				c11-2.8,17.4-10.1,19.5-21.1c1.5-8,0-15.5-4.7-22.2c-4.7-6.7-11.2-10.1-19.3-11c-1.6-0.2-3.3-0.2-5-0.2c-16.2,0-32.5,0-48.7,0
				c-1.9,0-2.6-0.4-2.6-1.5c0-1.2,0.8-1.7,2.6-1.7C66.5,132,75.4,132,84.2,132"/>
			<path id="Fill-16" class="st0" d="M136.8,390.2h-10.3v1.5c0,6,0,12.1,0,18.1c0,2.4-0.4,2.8-2.8,2.8c-31.5,0-63.1,0-94.6,0h-1.9
				c0,0.7,0,1.4,0,1.9c-0.1,0.9-0.7,1.5-1.6,1.5c-1,0-1.5-0.6-1.5-1.6c0-1.1,0-2.3,0-3.4c0-1,0.5-1.5,1.5-1.6c0.5,0,1,0,1.5,0
				c31.4,0,62.9,0,94.3,0c2.2,0,1.9,0.1,1.9-1.8c0-6,0-12.1,0-18.1c0-2,0.4-2.5,2.4-2.5c3.9,0,7.9,0,11.8,0c2,0,2.5,0.5,2.5,2.3
				c0,8.2,0,16.3,0,24.5c0,0.3,0,0.6,0,0.9c-0.1,0.8-0.7,1.5-1.5,1.3c-0.6-0.1-1.2-0.7-1.6-1.2c-0.2-0.2-0.1-0.8-0.1-1.2
				c0-7.3,0-14.5,0-21.8V390.2z"/>
			<path id="Fill-18" class="st0" d="M27.2,423.3h1.9h94c0.4,0,0.8,0,1.2,0c1.6,0.1,2.2,0.6,2.2,2.2c0,6.2,0,12.5,0,18.7v1.5h10.3
				v-1.5c0-7.3,0-14.6,0-21.9c0-0.4-0.1-1,0.1-1.3c0.4-0.5,1.1-1,1.6-1c0.5,0,1,0.7,1.4,1.2c0.2,0.2,0.1,0.7,0.1,1.1
				c0,8.1,0,16.1,0,24.2c0,1.9-0.5,2.4-2.4,2.4c-4,0-8,0-12,0c-1.9,0-2.4-0.5-2.4-2.3c0-6.2,0-12.5,0-18.7c0-1.3-0.4-1.5-1.6-1.5
				c-31.5,0-63.1,0-94.6,0c-0.5,0-1,0-1.5,0c-1-0.1-1.5-0.6-1.5-1.6c0-1.1,0-2.2,0-3.3c0-1,0.5-1.5,1.5-1.6c1,0,1.5,0.6,1.6,1.5
				C27.3,422.1,27.2,422.6,27.2,423.3"/>
			<path id="Fill-20" class="st0" d="M26.3,135.2c-0.1,0.4-0.1,0.7-0.1,0.9c0,2.7,0,5.4,0,8.2c0,0.8,0.3,1.1,1.1,1
				c0.4,0,0.7,0,1.1,0c26.1,0,52.2,0,78.3,0c3.8,0,7.4,0.5,10.7,2.3c4.6,2.5,7.4,6.3,8.5,11.3c0.2,1.1-0.3,1.9-1.2,2.1
				c-0.9,0.2-1.7-0.3-1.9-1.4c-1.9-6.9-6.6-10.6-13.8-11c-1,0-2-0.1-3-0.1c-26.6,0-53.2,0-79.8,0c-0.5,0-1,0-1.5,0
				c-1-0.1-1.6-0.6-1.6-1.6c0-4.3,0-8.7,0-13c0-1.1,0.6-1.7,1.7-1.7c1,0,1.9,0,2.9,0c7.1,0,14.3,0,21.4,0c0.5,0,1-0.1,1.3,0.1
				c0.5,0.4,1.3,1,1.2,1.5c0,0.5-0.8,1.1-1.3,1.4c-0.3,0.2-0.8,0.1-1.2,0.1c-7.1,0-14.1,0-21.2,0H26.3z"/>
			<path id="Fill-22" class="st0" d="M67.2,177.5c13.2,0,26.5,0,39.7,0c2.3,0,4.7-0.3,6.8-1c4.7-1.5,7.5-4.8,8.8-9.5
				c0.1-0.2,0.1-0.4,0.2-0.6c0.3-1.1,1-1.6,1.9-1.4c0.9,0.2,1.4,1,1.2,2.1c-1,4.6-3.5,8.3-7.7,10.8c-2.8,1.7-6,2.6-9.3,2.7
				c-1,0-1.9,0-2.9,0c-26.1,0-52.1,0-78.2,0c-1.7,0-1.7,0-1.7,1.7c0,2.3,0,4.6,0,6.8c0,1.7,0,1.7,1.8,1.7c6.9,0,13.9,0,20.8,0
				c0.4,0,0.7,0,1.1,0c1,0,1.7,0.5,1.8,1.5c0.1,1-0.7,1.5-1.6,1.6c-0.3,0-0.7,0-1,0c-7.8,0-15.6,0-23.4,0c-2.2,0-2.6-0.4-2.6-2.6
				c0-3.8,0-7.6,0-11.5c0-2,0.5-2.4,2.5-2.4C39.4,177.5,53.3,177.5,67.2,177.5"/>
			<path id="Fill-24" class="st0" d="M106.2,30.6c8.8-8.6,17.8-17.5,27-26.5h-1.4c-7,0-13.9,0-20.9,0c-0.4,0-0.8,0-1.1,0
				c-1,0-1.7-0.4-1.8-1.5c-0.1-0.9,0.6-1.5,1.8-1.6c0.4,0,0.7,0,1.1,0c8.4,0,16.8,0,25.2,0c0.5,0,1,0,1.5,0.1c1.4,0.2,1.9,1.5,1,2.6
				c-0.2,0.3-0.5,0.5-0.7,0.7c-10,9.8-20,19.7-30,29.5c-1.6,1.5-2.1,1.5-3.7,0c-10-9.8-20-19.6-30-29.4c-0.3-0.3-0.7-0.6-0.9-1
				c-0.6-1-0.1-2.1,1-2.3C74.8,1,75.2,1,75.7,1c8.6,0,17.2,0,25.9,0c1.9,0,2.7,0.5,2.6,1.7c0,1.1-0.8,1.5-2.7,1.5
				c-7.1,0-14.2,0-21.2,0h-1.1C88.2,13,97.2,21.8,106.2,30.6"/>
		</g>
	</g>
</g>
</svg>
